<?xml version="1.0" encoding="UTF-8" standalone="no"?>
<svg
   viewBox="0 0 36 36"
   version="1.1"
   id="svg6"
   sodipodi:docname="rabbit.svg"
   xml:space="preserve"
   inkscape:version="1.4.2 (ebf0e940d0, 2025-05-08)"
   inkscape:export-filename="rabbit.png"
   inkscape:export-xdpi="800"
   inkscape:export-ydpi="800"
   xmlns:inkscape="http://www.inkscape.org/namespaces/inkscape"
   xmlns:sodipodi="http://sodipodi.sourceforge.net/DTD/sodipodi-0.dtd"
   xmlns="http://www.w3.org/2000/svg"
   xmlns:svg="http://www.w3.org/2000/svg"><defs
     id="defs6" /><sodipodi:namedview
     id="namedview6"
     pagecolor="#505050"
     bordercolor="#eeeeee"
     borderopacity="1"
     inkscape:showpageshadow="0"
     inkscape:pageopacity="0"
     inkscape:pagecheckerboard="0"
     inkscape:deskcolor="#505050"
     inkscape:zoom="22.25"
     inkscape:cx="20.157303"
     inkscape:cy="18.629213"
     inkscape:window-width="1920"
     inkscape:window-height="1015"
     inkscape:window-x="0"
     inkscape:window-y="0"
     inkscape:window-maximized="1"
     inkscape:current-layer="svg6" /><g
     id="g6"
     transform="matrix(-0.78570593,0,0,-0.78570593,33,33.942461)"
     style="display:inline;stroke-width:1.27274"
     inkscape:label="sword"><path
       fill="#ccd6dd"
       d="M 12,29 7,24 30,1 h 5 v 5 z"
       id="path9"
       style="display:inline;stroke-width:1.27274" /><path
       fill="#9aaab4"
       d="M 35,1 V 6 L 12,29 9.5,26.5 Z"
       id="path10"
       style="display:inline;stroke-width:1.27274" /><path
       fill="#d99e82"
       d="M 2.576,32.808 C 2.292,32.524 2.118,32.182 2.045,31.84 l 5.242,-6.195 0.701,-0.702 c 0.564,-0.564 1.57,-0.473 2.248,0.205 l 0.613,0.612 c 0.677,0.677 0.768,1.683 0.204,2.247 l -0.741,0.741 -6.15,5.205 C 3.817,33.881 3.474,33.706 3.188,33.421 Z"
       id="path11"
       style="display:inline;stroke-width:1.27274" /><path
       d="M 2.576,32.808 C 2.292,32.524 2.118,32.182 2.045,31.84 l 1.342,-1.586 0.737,3.684 C 3.793,33.861 3.463,33.695 3.189,33.42 Z m 3.31,-5.506 0.888,4.441 -1.26,1.066 -0.82,-4.1 z m 1.401,-1.657 0.701,-0.702 c 0.096,-0.096 0.208,-0.166 0.326,-0.224 l 0.978,4.892 -1.26,1.066 -0.957,-4.783 z m 2.401,-0.888 c 0.195,0.095 0.382,0.225 0.548,0.392 l 0.613,0.612 c 0.254,0.254 0.425,0.554 0.511,0.86 0.142,0.51 0.046,1.035 -0.307,1.387 l -0.596,0.596 -0.769,-3.847 c 0,-0.001 0,-0.001 0,0 z"
       fill="#bf6952"
       id="path12"
       style="display:inline;stroke-width:1.27274" /><circle
       fill="#8a4633"
       cx="2.75"
       cy="33.25"
       r="2.75"
       id="circle12"
       style="display:inline;stroke-width:1.27274" /><path
       fill="#ffac33"
       d="m 6.374,22.324 c -0.404,0.404 -0.404,1.059 0,1.462 l 6.092,6.092 c 0.404,0.404 1.058,0.404 1.462,0 0.404,-0.404 0.404,-1.058 0,-1.462 L 7.836,22.324 c -0.402,-0.404 -1.058,-0.404 -1.462,0 z"
       id="path13"
       style="display:inline;stroke-width:1.27274" /><circle
       fill="#ffac33"
       cx="13.928"
       cy="29.877001"
       r="1.75"
       id="circle13"
       style="display:inline;stroke-width:1.27274" /><circle
       fill="#ffac33"
       cx="6.3740001"
       cy="22.323"
       r="1.75"
       id="circle14"
       style="display:inline;stroke-width:1.27274" /><circle
       fill="#ffcc4d"
       cx="13.928"
       cy="29.877001"
       r="1"
       id="circle15"
       style="display:inline;stroke-width:1.27274" /><circle
       fill="#ffcc4d"
       cx="6.3740001"
       cy="22.323"
       r="1"
       id="circle16"
       style="display:inline;stroke-width:1.27274" /><path
       fill="#ffac33"
       d="m 2.097,29.342 c -0.298,0.298 -0.298,0.781 0,1.078 l 3.476,3.475 c 0.298,0.298 0.78,0.298 1.078,0 0.298,-0.298 0.298,-0.78 0,-1.078 L 3.175,29.342 c -0.297,-0.298 -0.78,-0.298 -1.078,0 z"
       id="path16"
       style="display:inline;stroke-width:1.27274" /></g><path
     id="path15"
     style="display:inline;fill:#000000;fill-opacity:0.09965499;stroke-width:1.27274"
     d="M 14.904988 26.092529 L 32.173993 8.8260101 C 30.778991 6.1125477 30.444804 3.4409513 30.302169 1.3014273 C 30.295397 1.199856 30.288396 1.0996019 30.282282 1.0006428 L 29.998899 1.0006428 L 8.2554145 22.744127 L 8.1037794 22.592492 A 1.75 1.75 0 0 0 8.1236659 22.324023 A 1.75 1.75 0 0 0 6.3736473 20.574004 A 1.75 1.75 0 0 0 4.6236287 22.259392 C 4.7395523 22.346824 4.8580083 22.433491 4.9766154 22.517917 C 7.7496215 24.491786 11.228832 25.683114 14.904988 26.092529 z "
     transform="matrix(-0.78570593,0,0,-0.78570593,33,33.942461)" /><path
     fill="#99AAB5"
     d="M9 11C9 6.858 7 0 8 0s7 4 5 11c-1.138 3.983-.896 4-2 4s-2 .142-2-4z"
     id="path1" /><path
     fill="#F4ABBA"
     d="M9.55 11.704c0-3.414-1.297-9.065-.648-9.065.648 0 4.538 3.296 3.241 9.065-.738 3.282-.581 3.296-1.297 3.296s-1.296.117-1.296-3.296z"
     id="path2" /><path
     fill="#99AAB5"
     d="M4.789 12.375C3.726 8.372.033 2.256 1 2c.966-.257 7.792 2.07 7.655 9.349-.078 4.142.161 4.096-.907 4.379-1.068.283-1.897.65-2.959-3.353z"
     id="path3" /><path
     fill="#F4ABBA"
     d="M5.5 12.914c-.875-3.299-3.579-8.429-2.952-8.595.627-.167 5.232 2.022 5.458 7.93.129 3.361.285 3.335-.407 3.519-.692.183-1.223.445-2.099-2.854z"
     id="path4" /><circle
     fill="#CCD6DD"
     cx="32.5"
     cy="28.5"
     r="3.5"
     id="circle4" /><path
     fill="#99AAB5"
     d="M30.733 31.736C32.227 30.354 33 28.218 33 25c0-7.18-6.82-11-14-11-2.057 0-3.829.157-5.323.54C12.592 13.41 10.817 13 8.4 13 4.136 13 0 17.069 0 21.333c0 4.13 3.88 4.637 7.999 4.664L8 26c3 5 1 10 3 10 1.588 0 1.914-2.217 1.981-4.375 1.068.663 2.258 1.191 3.531 1.577C15.635 33.726 15 34.271 15 34.5c0 1.381 2 1.5 5 1.5 5.522 0 13 0 11-4-.054-.107-.151-.19-.267-.264z"
     id="path5" /><circle
     fill="#292F33"
     cx="6"
     cy="18"
     r="1"
     id="circle5" /><path
     fill="#F4ABBA"
     d="M2 21c0 1.104-.5 2-1 2s-1-.896-1-2 .448-1 1-1 1-.104 1 1z"
     id="path6" /><path
     fill="#77b255"
     d="m 22.656405,13.69406 c -1.082,0.719 -2.047,1.559 -2.88,2.422 -0.127,-4.245 -1.147,-9.7349997 -6.772,-12.4229997 -1.113,-6.055 -14.0920001,-2.97900001 -12.93100014,-2.391 2.31400004,1.17 3.54500004,4.148 5.03400004,5.715 2.653,2.792 5.6030001,2.964 7.0710001,0.778 3.468,2.2539997 3.696,6.5289997 3.59,11.0989997 -0.012,0.505 -0.023,0.975 -0.023,1.402 v 14 c 0,1.104 4,1.104 4,0 v -11.49 c 0.542,-0.954 2.122,-3.505 4.43,-5.294 1.586,1.393 4.142,0.948 6.463,-1.495 1.489,-1.567 2.293,-4.544 4.607,-5.715 1.221,-0.6179997 -12.801,-3.9939997 -12.589,3.392 z"
     id="path1-2"
     style="display:none" /></svg>
